<svg xmlns="http://www.w3.org/2000/svg" xmlns:xlink="http://www.w3.org/1999/xlink" width="3000" zoomAndPan="magnify" viewBox="0 0 2250 2250.000011" height="3000" preserveAspectRatio="xMidYMid meet" version="1.0"><defs><filter x="0%" y="0%" width="100%" height="100%" id="94ad7e88ca"><feColorMatrix values="0 0 0 0 1 0 0 0 0 1 0 0 0 0 1 0 0 0 1 0" color-interpolation-filters="sRGB"/></filter><clipPath id="395c5b017e"><path d="M 0.5 0 L 2249.5 0 L 2249.5 2249 L 0.5 2249 Z M 0.5 0 " clip-rule="nonzero"/></clipPath><mask id="7fa566e4b1"><g filter="url(#94ad7e88ca)"><rect x="-225" width="2700" fill="#000000" y="-225.000001" height="2700.000013" fill-opacity="0.8471"/></g></mask><clipPath id="719c8907a4"><path d="M 0.5 1499 L 751 1499 L 751 2249 L 0.5 2249 Z M 0.5 1499 " clip-rule="nonzero"/></clipPath><clipPath id="22a95c81bd"><path d="M 1799 0 L 2249.5 0 L 2249.5 450 L 1799 450 Z M 1799 0 " clip-rule="nonzero"/></clipPath><clipPath id="5def011936"><path d="M 750 937 L 2249.5 937 L 2249.5 2175 L 750 2175 Z M 750 937 " clip-rule="nonzero"/></clipPath><clipPath id="9f8657707d"><path d="M 0.5 74 L 76 74 L 76 150 L 0.5 150 Z M 0.5 74 " clip-rule="nonzero"/></clipPath><clipPath id="194660cccf"><path d="M 2174 2099 L 2249.5 2099 L 2249.5 2175 L 2174 2175 Z M 2174 2099 " clip-rule="nonzero"/></clipPath><clipPath id="0f782f9483"><rect x="0" width="2250" y="0" height="2249"/></clipPath></defs><g clip-path="url(#395c5b017e)"><g mask="url(#7fa566e4b1)"><g transform="matrix(1, 0, 0, 1, 0.000000000000000056, -0.00000000000012564)"><g clip-path="url(#0f782f9483)"><g clip-path="url(#719c8907a4)"><path fill="#506ef8" d="M 117.035156 2026.238281 L 57.175781 2086.097656 L 163.402344 2192.324219 L 223.300781 2132.425781 C 247.027344 2146.410156 272.855469 2157.167969 300.214844 2164.214844 L 300.214844 2249 L 450.449219 2249 L 450.449219 2164.136719 C 477.773438 2157.054688 503.527344 2146.296875 527.253906 2132.316406 L 587.265625 2192.324219 L 693.492188 2086.097656 L 633.445312 2026.050781 C 647.425781 2002.359375 658.144531 1976.609375 665.191406 1949.285156 L 750.167969 1949.285156 L 750.167969 1799.050781 L 665.191406 1799.050781 C 658.144531 1771.761719 647.425781 1746.011719 633.445312 1722.285156 L 693.492188 1662.234375 L 587.265625 1556.007812 L 527.214844 1616.058594 C 503.488281 1602.074219 477.738281 1591.316406 450.449219 1584.234375 L 450.449219 1499.332031 L 300.214844 1499.332031 L 300.214844 1584.121094 C 272.855469 1591.167969 247.066406 1601.925781 223.300781 1615.90625 L 163.402344 1556.007812 L 57.175781 1662.234375 L 117.035156 1722.097656 C 103.015625 1745.863281 92.257812 1771.648438 85.175781 1799.050781 L 0.5 1799.050781 L 0.5 1949.285156 L 85.175781 1949.285156 C 92.257812 1976.648438 103.015625 2002.472656 117.035156 2026.238281 Z M 375.332031 1724.234375 C 458.132812 1724.234375 525.265625 1791.367188 525.265625 1874.167969 C 525.265625 1956.96875 458.132812 2024.101562 375.332031 2024.101562 C 292.53125 2024.101562 225.398438 1956.96875 225.398438 1874.167969 C 225.398438 1791.367188 292.53125 1724.234375 375.332031 1724.234375 Z M 375.332031 1724.234375 " fill-opacity="1" fill-rule="nonzero"/></g><g clip-path="url(#22a95c81bd)"><path fill="#506ef8" d="M 2094.09375 148.058594 L 2024.601562 0 L 1955.105469 148.058594 L 1799.699219 171.824219 L 1912.148438 287.046875 L 1885.613281 449.800781 L 2024.601562 372.960938 L 2163.589844 449.800781 L 2137.050781 287.046875 L 2249.5 171.824219 Z M 2094.09375 148.058594 " fill-opacity="1" fill-rule="nonzero"/></g><g clip-path="url(#5def011936)"><path fill="#506ef8" d="M 2174.535156 937.082031 L 1837.183594 1124.5 L 1987.117188 1161.984375 C 1898.617188 1285.527344 1650.105469 1597.539062 1199.964844 1761.71875 C 1081.445312 1804.933594 967.683594 1831.097656 862.617188 1845.792969 L 750.167969 2174.035156 C 1566.214844 2129.203125 2038.65625 1386.285156 2137.050781 1236.949219 L 2249.5 1274.433594 Z M 2174.535156 937.082031 " fill-opacity="1" fill-rule="nonzero"/></g><path fill="#506ef8" d="M 75.464844 0 L 150.433594 0 L 150.433594 74.964844 L 75.464844 74.964844 Z M 75.464844 0 " fill-opacity="1" fill-rule="nonzero"/><path fill="#506ef8" d="M 150.433594 74.964844 L 225.398438 74.964844 L 225.398438 149.933594 L 150.433594 149.933594 Z M 150.433594 74.964844 " fill-opacity="1" fill-rule="nonzero"/><g clip-path="url(#9f8657707d)"><path fill="#506ef8" d="M 0.5 74.964844 L 75.464844 74.964844 L 75.464844 149.933594 L 0.5 149.933594 Z M 0.5 74.964844 " fill-opacity="1" fill-rule="nonzero"/></g><path fill="#506ef8" d="M 75.464844 149.933594 L 150.433594 149.933594 L 150.433594 224.898438 L 75.464844 224.898438 Z M 75.464844 149.933594 " fill-opacity="1" fill-rule="nonzero"/><path fill="#506ef8" d="M 375.332031 112.449219 L 450.300781 112.449219 L 450.300781 187.417969 L 375.332031 187.417969 Z M 375.332031 112.449219 " fill-opacity="1" fill-rule="nonzero"/><path fill="#506ef8" d="M 450.300781 187.417969 L 525.265625 187.417969 L 525.265625 262.382812 L 450.300781 262.382812 Z M 450.300781 187.417969 " fill-opacity="1" fill-rule="nonzero"/><path fill="#506ef8" d="M 300.367188 187.417969 L 375.332031 187.417969 L 375.332031 262.382812 L 300.367188 262.382812 Z M 300.367188 187.417969 " fill-opacity="1" fill-rule="nonzero"/><path fill="#506ef8" d="M 375.332031 262.382812 L 450.300781 262.382812 L 450.300781 337.351562 L 375.332031 337.351562 Z M 375.332031 262.382812 " fill-opacity="1" fill-rule="nonzero"/><path fill="#506ef8" d="M 2099.566406 2024.101562 L 2174.535156 2024.101562 L 2174.535156 2099.066406 L 2099.566406 2099.066406 Z M 2099.566406 2024.101562 " fill-opacity="1" fill-rule="nonzero"/><g clip-path="url(#194660cccf)"><path fill="#506ef8" d="M 2174.535156 2099.066406 L 2249.5 2099.066406 L 2249.5 2174.035156 L 2174.535156 2174.035156 Z M 2174.535156 2099.066406 " fill-opacity="1" fill-rule="nonzero"/></g><path fill="#506ef8" d="M 2024.601562 2099.066406 L 2099.566406 2099.066406 L 2099.566406 2174.035156 L 2024.601562 2174.035156 Z M 2024.601562 2099.066406 " fill-opacity="1" fill-rule="nonzero"/><path fill="#506ef8" d="M 2099.566406 2174.035156 L 2174.535156 2174.035156 L 2174.535156 2249 L 2099.566406 2249 Z M 2099.566406 2174.035156 " fill-opacity="1" fill-rule="nonzero"/><path fill="#506ef8" d="M 775.957031 1262.777344 L 776.21875 1262.851562 C 805.640625 1269.824219 836.339844 1257.867188 853.246094 1232.789062 L 1062.402344 923.101562 L 1084.480469 1184.546875 L 997.332031 1782.257812 C 1060.679688 1767.640625 1123.164062 1749.609375 1184.074219 1727.53125 L 1274.410156 1206.140625 L 1457.589844 1296.023438 C 1465.984375 1300.148438 1472.507812 1307.230469 1475.957031 1315.925781 L 1554.257812 1535.691406 C 1602.460938 1502.183594 1646.582031 1467.585938 1686.988281 1432.914062 L 1615.433594 1192.90625 C 1612.320312 1183.238281 1605.386719 1175.214844 1596.242188 1170.71875 L 1424.867188 1081.433594 L 1395.40625 857.320312 L 1727.65625 604.195312 C 1759.367188 580.054688 1766.601562 535.300781 1744.148438 502.390625 L 1743.363281 501.226562 C 1718.960938 465.394531 1669.332031 457.710938 1635.1875 484.398438 L 1345.441406 711.058594 L 1196.03125 723.691406 C 1278.53125 716.71875 1339.78125 644.1875 1332.808594 561.652344 C 1325.835938 479.148438 1253.304688 417.902344 1170.765625 424.875 C 1088.230469 431.84375 1027.019531 504.375 1033.992188 586.914062 C 1040.960938 669.414062 1113.492188 730.664062 1195.992188 723.691406 L 1079.234375 733.550781 C 1034.890625 737.296875 994.519531 760.535156 968.996094 797.007812 L 732.210938 1151.601562 C 704.136719 1193.769531 726.628906 1251.082031 775.957031 1262.777344 Z M 775.957031 1262.777344 " fill-opacity="1" fill-rule="nonzero"/></g></g></g></g></svg>