<svg xmlns="http://www.w3.org/2000/svg" width="1080" height="1080" viewBox="0 0 1080 1080">
  <defs>
    <style>
      .cls-1 {
        fill: #ff3a3a;
      }

      .cls-1, .cls-2, .cls-3, .cls-4, .cls-6 {
        fill-rule: evenodd;
      }

      .cls-2, .cls-7 {
        fill: #fff;
      }

      .cls-3, .cls-5 {
        fill: #9d8270;
      }

      .cls-4 {
        fill: #efb61e;
      }

      .cls-6 {
        fill: #1f2e6e;
      }
    </style>
  </defs>
  <path id="Ellipse_1_copy_12" data-name="Ellipse 1 copy 12" class="cls-1" d="M1037.89,749.314c-48.531-325.893-329.541-575.89-668.954-575.89q-24.649,0-48.865,1.753a671.226,671.226,0,0,1,152.2-170.6A541.075,541.075,0,0,0,98.1,229.828l-0.149.064C195.638,90.866,357.231,0,540.054,0,838.258,0,1080,241.734,1080,539.928A538.151,538.151,0,0,1,1037.89,749.314Z"/>
  <path id="white_circle" data-name="white circle" class="cls-2" d="M719.265,161.863a115.616,115.616,0,1,1-115.62,115.616A115.617,115.617,0,0,1,719.265,161.863Z"/>
  <path id="brown_circle" data-name="brown circle" class="cls-3" d="M719.265,176.893A100.586,100.586,0,1,1,618.676,277.479,100.588,100.588,0,0,1,719.265,176.893Z"/>
  <path id="Ellipse_1_copy_12-2" data-name="Ellipse 1 copy 12" class="cls-4" d="M942.89,575.277q12.423-21.519,23.083-43.544A671.688,671.688,0,0,1,1037.86,749.1a543.878,543.878,0,0,1-30.32,61C858.506,1068.23,528.364,1156.63,270.149,1007.56A538.361,538.361,0,0,1,109.88,866.431C416.336,987.343,773.258,869.077,942.89,575.277Z"/>
  <path id="white_circle_copy" data-name="white circle copy" class="cls-2" d="M777.874,884.156a115.619,115.619,0,1,1-42.32-157.934A115.622,115.622,0,0,1,777.874,884.156Z"/>
  <circle id="brown_circle_copy" data-name="brown circle copy" class="cls-5" cx="677.735" cy="826.36" r="100.61"/>
  <path id="Ellipse_1_copy_12-3" data-name="Ellipse 1 copy 12" class="cls-6" d="M308.064,871.2q12.43,21.523,26.2,41.752a671.749,671.749,0,0,1-224.185-46.445,544.612,544.612,0,0,1-37.67-56.737C-76.623,551.718,11.822,221.746,269.961,72.758A538.146,538.146,0,0,1,472.266,4.581C214.4,209.406,138.432,577.488,308.064,871.2Z"/>
  <circle id="white_circle_copy_2" data-name="white circle copy 2" class="cls-7" cx="223.156" cy="515.953" r="115.656"/>
  <circle id="brown_circle_copy_2" data-name="brown circle copy 2" class="cls-5" cx="223.141" cy="515.953" r="100.609"/>
</svg>
